<mxfile host="app.diagrams.net" modified="2021-09-03T15:44:19.811Z" agent="5.0 (Windows NT 10.0; Win64; x64) AppleWebKit/537.36 (KHTML, like Gecko) Chrome/92.0.4515.159 Safari/537.36 Edg/92.0.902.84" etag="Mlh7gfdq4jPtR_OB29ft" version="15.0.6" type="github">
  <diagram id="MTM9LaEGFVGBHDP9SOuC" name="Page-1">
    <mxGraphModel dx="674" dy="579" grid="1" gridSize="10" guides="1" tooltips="1" connect="1" arrows="1" fold="1" page="1" pageScale="1" pageWidth="827" pageHeight="1169" math="0" shadow="0">
      <root>
        <mxCell id="0" />
        <mxCell id="1" parent="0" />
        <mxCell id="jADzKQt5Ub7YTNYVZvlP-1" value="" style="rounded=0;whiteSpace=wrap;html=1;" vertex="1" parent="1">
          <mxGeometry x="290" y="270" width="120" height="60" as="geometry" />
        </mxCell>
        <mxCell id="jADzKQt5Ub7YTNYVZvlP-4" value="" style="edgeStyle=orthogonalEdgeStyle;rounded=0;orthogonalLoop=1;jettySize=auto;html=1;" edge="1" parent="1" source="jADzKQt5Ub7YTNYVZvlP-2" target="jADzKQt5Ub7YTNYVZvlP-3">
          <mxGeometry relative="1" as="geometry" />
        </mxCell>
        <mxCell id="jADzKQt5Ub7YTNYVZvlP-2" value="" style="shape=actor;whiteSpace=wrap;html=1;" vertex="1" parent="1">
          <mxGeometry x="170" y="280" width="40" height="50" as="geometry" />
        </mxCell>
        <mxCell id="jADzKQt5Ub7YTNYVZvlP-6" value="" style="edgeStyle=orthogonalEdgeStyle;rounded=0;orthogonalLoop=1;jettySize=auto;html=1;" edge="1" parent="1" source="jADzKQt5Ub7YTNYVZvlP-3" target="jADzKQt5Ub7YTNYVZvlP-5">
          <mxGeometry relative="1" as="geometry" />
        </mxCell>
        <mxCell id="jADzKQt5Ub7YTNYVZvlP-3" value="" style="shape=actor;whiteSpace=wrap;html=1;" vertex="1" parent="1">
          <mxGeometry x="170" y="170" width="40" height="50" as="geometry" />
        </mxCell>
        <mxCell id="jADzKQt5Ub7YTNYVZvlP-5" value="" style="whiteSpace=wrap;html=1;" vertex="1" parent="1">
          <mxGeometry x="290" y="165" width="120" height="60" as="geometry" />
        </mxCell>
        <mxCell id="jADzKQt5Ub7YTNYVZvlP-7" value="" style="shape=image;html=1;verticalAlign=top;verticalLabelPosition=bottom;labelBackgroundColor=#ffffff;imageAspect=0;aspect=fixed;image=https://cdn0.iconfinder.com/data/icons/christmas-snowman-1/512/33_christmas_Fire_fireplace_fireside_firewood_furnace_mantelpiece-128.png" vertex="1" parent="1">
          <mxGeometry x="440" y="190" width="128" height="128" as="geometry" />
        </mxCell>
      </root>
    </mxGraphModel>
  </diagram>
</mxfile>
